<?xml version="1.0" standalone="no"?>
<!DOCTYPE svg PUBLIC "-//W3C//DTD SVG 1.1//EN" "http://www.w3.org/Graphics/SVG/1.1/DTD/svg11.dtd">
<svg xmlns="http://www.w3.org/2000/svg">
<metadata>Generated by Fontastic.me</metadata>
<defs>
<font id="wlc" horiz-adv-x="512">
<font-face font-family="wlc" units-per-em="512" ascent="480" descent="-32"/>
<missing-glyph horiz-adv-x="512" />

<glyph glyph-name="add" unicode="&#97;" d="M256 512c-141 0-256-115-256-256 0-141 115-256 256-256 141 0 256 115 256 256 0 141-115 256-256 256z m0-480c-124 0-224 100-224 224 0 124 100 224 224 224 124 0 224-100 224-224 0-124-100-224-224-224z m96 240l-80 0 0 80c0 9-7 16-16 16-9 0-16-7-16-16l0-80-80 0c-9 0-16-7-16-16 0-9 7-16 16-16l80 0 0-80c0-9 7-16 16-16 9 0 16 7 16 16l0 80 80 0c9 0 16 7 16 16 0 9-7 16-16 16z"/>
<glyph glyph-name="arrow-point-to-down" unicode="&#98;" d="M0 384l512 0-256-256z"/>
<glyph glyph-name="cancel" unicode="&#99;" d="M282 256l158 158c7 7 7 19 0 26-8 7-19 7-26 0l-158-158-158 158c-7 7-19 7-26 0-7-8-7-19 0-26l158-158-158-158c-7-7-7-18 0-25 4-4 9-6 13-6 5 0 10 2 13 6l158 157 158-157c3-4 8-6 13-6 4 0 9 2 13 6 7 7 7 18 0 25z"/>
<glyph glyph-name="caret-arrow-down" unicode="&#100;" d="M0 128l256 256 256-256z"/>
<glyph glyph-name="down-arrow" unicode="&#102;" d="M481 375c-6 6-16 6-23 0l-202-203-203 203c-6 6-16 6-23 0-6-7-6-17 0-23l214-214c3-3 7-5 12-5 4 0 8 2 11 5l214 214c7 6 7 16 0 23z"/>
<glyph glyph-name="edit" unicode="&#103;" d="M488 488c-33 32-86 32-118 0l-335-335c0 0 0 0 0 0 0 0 0-1 0-1-1 0-1-1-2-2 0 0 0 0 0-1 0 0 0 0 0 0l-33-138c0 0 0-1 0-1 0-1 0-1 0-1 0-1 0-2 1-3 0 0 0 0 0-1 0-1 1-1 2-2 1-1 2-2 3-2 1-1 2-1 3-1 1 0 2 0 2 0l138 33c0 0 0 0 1 0 0 0 0 0 1 1 0 0 1 0 1 1 1 0 1 0 1 0 0 0 0 0 0 0l335 335c32 32 32 85 0 118z m-13-13c23-24 25-60 6-85l-91 91c25 19 61 17 85-6z m-46-138l-92 92 13 13 92-92z m-383-291c-4 4-10 4-13 0l-7-7 24 99 41 5-6-48c0 0 0 0 0-1 0 0 0 0 0-1 0 0 0 0 0 0 1-1 1-1 1-2 0-1 0-1 1-2 0 0 0 0 1-1 0 0 1-1 1-1 1 0 1-1 1-1 1 0 2 0 2 0 1-1 1-1 1-1 1 0 1 0 1 0 0 0 0 0 0 0 0 0 0 0 0 0l0 0c0 0 0 0 0 0 1 0 1 0 1 0l48 6-5-41-99-24 7 7c4 3 4 9 0 13z m116 51l208 207c3 4 3 10 0 13-4 4-10 4-13 0l-208-207-44-5 5 44 207 208c4 3 4 9 0 13-3 3-9 3-13 0l-207-208-30-3 257 257 92-92-257-257z m293 266l-92 92 13 13 92-92z"/>
<glyph glyph-name="export" unicode="&#104;" d="M400 208c-9 0-16-7-16-16l0-144-352 0 0 352 144 0c9 0 16 7 16 16 0 9-7 16-16 16l-160 0c-9 0-16-7-16-16l0-384c0-9 7-16 16-16l384 0c9 0 16 7 16 16l0 160c0 9-7 16-16 16z m107 172l-128 112c-5 4-12 5-18 3-5-3-9-9-9-15l0-48-9 0c-103 0-192-77-206-179l-9-59c-1-7 3-14 11-17 1-1 3-1 5-1 5 0 11 3 14 8l23 37c33 52 88 83 149 83l22 0 0-48c0-6 4-12 9-15 6-2 13-1 18 3l128 112c3 3 5 7 5 12 0 5-2 9-5 12z m-123-89l0 29c0 9-7 16-16 16l-38 0c-62 0-120-28-160-75 18 80 90 139 173 139l25 0c9 0 16 7 16 16l0 29 88-77z"/>
<glyph glyph-name="graph-line-screen" unicode="&#105;" d="M481 486l-450 0c-17 0-31-14-31-31l0-323c0-17 14-32 31-32l450 0c17 0 31 15 31 32l0 323c0 17-14 31-31 31z m-8-331l-434 0 0 287 434 0z m-275-69l-59-60 234 0-58 60z m-93 126c12 0 21 10 21 21 0 2 0 4-1 6 27 21 74 59 95 76 4-3 7-4 12-4 4 0 7 1 10 3 14-12 37-32 54-46 0-1-1-2-1-4 0-11 10-21 21-21 12 0 21 10 21 21 0 2-1 4-1 6l54 49c3-2 6-3 9-3 12 0 21 10 21 21 0 12-9 21-21 21-11 0-21-9-21-21 0-3 1-5 2-8-15-13-38-34-53-47-3 2-7 3-11 3-5 0-9-2-13-5-14 12-36 31-52 44 1 3 2 5 2 8 0 11-10 20-21 20-12 0-21-9-21-20 0-3 1-5 2-8l-96-74c-4 2-7 4-12 4-11 0-21-9-21-21 0-11 10-21 21-21z"/>
<glyph glyph-name="grid" unicode="&#106;" d="M178 512l-131 0c-26 0-47-21-47-47l0-131c0-25 21-46 47-46l131 0c25 0 46 21 46 46l0 131c0 26-21 47-46 47z m5-178c0-3-2-5-5-5l-131 0c-3 0-6 2-6 5l0 131c0 3 3 6 6 6l131 0c3 0 5-3 5-6z m282 178l-131 0c-25 0-46-21-46-47l0-131c0-25 21-46 46-46l131 0c26 0 47 21 47 46l0 131c0 26-21 47-47 47z m6-178c0-3-3-5-6-5l-131 0c-3 0-5 2-5 5l0 131c0 3 2 6 5 6l131 0c3 0 6-3 6-6z m-6-110l-131 0c-25 0-46-21-46-46l0-131c0-26 21-47 46-47l131 0c26 0 47 21 47 47l0 131c0 25-21 46-47 46z m6-177c0-3-3-6-6-6l-131 0c-3 0-5 3-5 6l0 131c0 3 2 5 5 5l131 0c3 0 6-2 6-5z m-293 177l-131 0c-26 0-47-21-47-46l0-131c0-26 21-47 47-47l131 0c25 0 46 21 46 47l0 131c0 25-21 46-46 46z m5-177c0-3-2-6-5-6l-131 0c-3 0-6 3-6 6l0 131c0 3 3 5 6 5l131 0c3 0 5-2 5-5z"/>
<glyph glyph-name="help" unicode="&#107;" d="M252 186c-7 0-12-6-12-12l0-8c0-7 5-12 12-12 7 0 12 5 12 12l0 8c0 6-5 12-12 12z m4 238c-92 0-168-76-168-168 0-92 76-168 168-168 92 0 168 76 168 168 0 92-76 168-168 168z m0-312c-79 0-144 65-144 144 0 79 65 144 144 144 79 0 144-65 144-144 0-79-65-144-144-144z m-3 247c-31 0-46-17-53-31-7-15-8-28-8-30 0-7 5-12 12-12 6 0 12 5 12 12 0 0 0 9 5 19 6 12 17 18 32 18 15 0 26-4 32-12 5-6 6-15 4-25-3-12-14-22-23-32-12-12-25-25-25-42 0-7 6-12 12-12 7 0 12 5 12 12 0 7 9 16 18 25 12 12 25 25 29 43 5 17 2 34-8 46-8 9-22 21-51 21z"/>
<glyph glyph-name="left-arrow" unicode="&#108;" d="M167 431c7 7 19 7 26 0 7-7 7-19 0-26l-131-131 432 0c10 0 18-8 18-18 0-10-8-18-18-18l-432 0 131-131c7-7 7-19 0-26-7-7-19-7-26 0l-162 162c-7 7-7 19 0 26z"/>
<glyph glyph-name="left-arrow-1" unicode="&#109;" d="M352 31c3-4 7-5 11-5 5 0 8 1 12 5 6 6 6 16 0 23l-203 202 203 202c6 7 6 17 0 23-7 7-17 7-23 0l-215-213c-6-7-6-17 0-24z"/>
<glyph glyph-name="magnifying-glass" unicode="&#110;" d="M508 26l-125 125c33 38 54 88 54 143 0 120-98 218-219 218-120 0-218-98-218-218 0-121 98-219 218-219 55 0 105 21 144 54l124-124c3-3 7-5 11-5 4 0 8 1 11 5 5 5 5 15 0 21z m-477 268c0 103 84 187 187 187 104 0 188-84 188-187 0-104-84-188-188-188-103 0-187 84-187 188z"/>
<glyph glyph-name="more-details-circular-button" unicode="&#111;" d="M256 512c-141 0-256-115-256-256 0-141 115-256 256-256 141 0 256 115 256 256 0 141-115 256-256 256z m0-485c-127 0-229 102-229 229 0 127 102 229 229 229 127 0 229-102 229-229 0-127-102-229-229-229z m0 276c-26 0-47-21-47-47 0-26 21-47 47-47 26 0 47 21 47 47 0 26-21 47-47 47z m0-67c-11 0-20 9-20 20 0 11 9 20 20 20 11 0 20-9 20-20 0-11-9-20-20-20z m135 67c-27 0-47-21-47-47 0-26 20-47 47-47 26 0 47 21 47 47 0 26-21 47-47 47z m0-67c-12 0-20 9-20 20 0 11 8 20 20 20 11 0 20-9 20-20 0-11-9-20-20-20z m-270 67c-26 0-47-21-47-47 0-26 21-47 47-47 27 0 47 21 47 47 0 26-20 47-47 47z m0-67c-11 0-20 9-20 20 0 11 9 20 20 20 12 0 20-9 20-20 0-11-8-20-20-20z"/>
<glyph glyph-name="right-arrow" unicode="&#112;" d="M160 31c-3-4-7-5-11-5-5 0-8 1-12 5-6 6-6 16 0 23l203 202-203 202c-6 7-6 17 0 23 7 7 17 7 23 0l214-213c7-7 7-17 0-24z"/>
<glyph glyph-name="round-error-symbol" unicode="&#113;" d="M256 512c-141 0-256-115-256-256 0-141 115-256 256-256 141 0 256 115 256 256 0 141-115 256-256 256z m26-384l-52 0 0 51 52 0z m0 102l-52 0 0 154 52 0z"/>
<glyph glyph-name="router-signal" unicode="&#114;" d="M452 373c4 0 8 2 11 5 7 6 7 17 0 23-36 36-94 36-130 0-7-6-7-17 0-23 6-7 17-7 23 0 23 23 61 23 84 0 3-3 7-5 12-5z m-151 48c4 0 8 2 12 5 22 23 53 35 85 35 32 0 63-12 86-35 6-6 17-6 23 0 7 6 7 17 0 23-29 30-68 46-109 46-41 0-80-16-109-46-6-6-6-17 0-23 3-3 8-5 12-5z m80-76l0-116 34 0 0 116c0 10-7 17-17 17-9 0-17-7-17-17z m104-133l-460 0c-14 0-25-11-25-25l0-145c0-13 11-25 25-25l460 0c14 0 25 12 25 25l0 145c0 14-11 25-25 25z m-15-129c0-7-5-12-12-12l-406 0c-7 0-12 5-12 12l0 63c0 7 5 12 12 12l406 0c7 0 12-5 12-12z m-215 53c-12 0-22-9-22-21 0-13 10-22 22-22 12 0 22 9 22 22 0 12-10 21-22 21z m0-31c-5 0-9 5-9 10 0 4 4 9 9 9 5 0 9-5 9-9 0-5-4-10-9-10z m85 31c-12 0-22-9-22-21 0-13 10-22 22-22 12 0 22 9 22 22 0 12-10 21-22 21z m0-31c-5 0-9 5-9 10 0 4 4 9 9 9 5 0 9-5 9-9 0-5-4-10-9-10z m107 10c0-13-10-22-22-22-12 0-22 9-22 22 0 12 10 21 22 21 12 0 22-9 22-21z m-255 0c0-13-10-22-22-22-12 0-22 9-22 22 0 12 10 21 22 21 12 0 22-9 22-21z m-85 0c0-13-10-22-22-22-12 0-22 9-22 22 0 12 10 21 22 21 12 0 22-9 22-21z"/>
<glyph glyph-name="rubbish-bin" unicode="&#115;" d="M110 24c1-14 12-25 26-25l241 0c14 0 25 11 25 25l18 363-327 0z m201 273c0 6 4 10 10 10l17 0c6 0 11-4 11-10l0-207c0-6-5-11-11-11l-17 0c-6 0-10 5-10 11z m-74 0c0 6 5 10 11 10l17 0c5 0 10-4 10-10l0-207c0-6-5-11-10-11l-17 0c-6 0-11 5-11 11z m-73 0c0 6 5 10 11 10l16 0c6 0 11-4 11-10l0-207c0-6-5-11-11-11l-16 0c-6 0-11 5-11 11z m267 189l-111 0 0 21c0 3-2 5-5 5l-117 0c-3 0-5-2-5-5l0-21-112 0c-8 0-16-8-16-17l0-50 382 0 0 50c0 9-7 17-16 17z"/>
<glyph glyph-name="settings" unicode="&#116;" d="M493 293l-50 9c-4 15-9 29-16 43l32 40c7 8 7 21-1 29l-20 23c-7 8-19 10-29 4l-43-28c-19 14-41 24-64 29l-8 51c-2 11-12 19-23 19l-30 0c-11 0-20-8-22-19l-9-51c-19-4-37-12-53-22l-42 29c-8 7-21 6-28-2l-22-22c-8-7-9-20-2-28l29-42c-10-16-17-34-22-53l-51-9c-11-2-19-11-19-22l0-30c0-11 8-21 19-22l51-9c4-16 10-31 17-45l-32-40c-7-8-7-20 0-28l21-23c7-8 19-10 28-4l44 27c19-12 40-22 62-27l9-51c2-11 11-19 22-19l30 0c11 0 21 8 23 19l8 51c19 4 37 12 53 22l43-31c9-6 21-5 29 2l22 22c7 8 8 20 2 29l-31 43c10 16 18 34 23 53l50 9c11 1 19 11 19 22l0 30c0 11-8 20-19 22z m-236-133c-53 0-96 43-96 96 0 53 43 96 96 96 53 0 96-43 96-96 0-53-43-96-96-96z"/>
<glyph glyph-name="tool" unicode="&#117;" d="M501 404l-1 1-95-95 71-71 0 1c37 46 46 109 25 164z m-209-29c0 8 3 15 9 20l105 105-2 1c-19 7-39 11-60 11-45 0-87-17-119-49-48-48-61-117-39-177l-165-165c-14-13-21-31-21-50 0-19 7-37 21-50 13-14 31-21 50-21 19 0 37 7 50 21l165 165c18-7 38-10 58-10 0 0 0 0 0 0 37 0 72 11 101 33l1 1-145 145c-6 6-9 13-9 20z m-206-323c-9-10-25-10-34 0-10 9-10 25 0 34 9 9 25 9 34 0 9-9 9-25 0-34z m152 270c0 6 4 11 9 11l40 4c5 1 10-3 11-9 0-5-4-10-9-11l-40-4c-5-1-10 3-11 9z m117-51c1-5-3-10-9-11l-39-4c-6-1-11 3-12 9 0 5 4 10 9 11l40 4c6 1 11-3 11-9z m-29 29c1-6-3-11-8-11l-40-5c-6 0-11 4-11 9-1 6 3 11 9 11l39 5c6 0 11-4 11-9z"/>
<glyph glyph-name="up-arrow" unicode="&#118;" d="M27 126l228 226 229-227c3-3 7-4 11-4 5 0 9 1 12 4 6 7 6 17 0 23l-240 238c-2 2-4 3-6 4-6 2-13 1-17-4l-240-238c-7-6-7-16 0-22 6-7 16-7 23 0z"/>
<glyph glyph-name="wifi" unicode="&#119;" d="M394 288c-64 0-117-53-117-117 0-65 53-118 117-118 65 0 118 53 118 118 0 64-53 117-118 117z m0-214c-53 0-96 44-96 97 0 53 43 96 96 96 53 0 97-43 97-96 0-53-44-97-97-97z m43 107l-85 0c-6 0-11-5-11-10 0-6 5-11 11-11l85 0c6 0 11 5 11 11 0 5-5 10-11 10z m-43 43c-5 0-10-5-10-11l0-85c0-6 5-11 10-11 6 0 11 5 11 11l0 85c0 6-5 11-11 11z m50 134c-59 65-137 101-220 101-84 0-162-36-221-100-4-5-4-12 1-16 4-4 11-3 15 1 54 60 127 94 205 94 77 0 150-34 204-94 3-2 5-3 8-3 3 0 5 1 8 2 4 4 4 11 0 15z m-55-60c-44 49-103 76-165 76-63 0-122-27-166-76-4-4-4-11 0-15 5-4 12-4 16 1 40 44 93 68 150 68 56 0 109-24 150-68 2-3 5-4 7-4 3 0 6 1 8 3 4 4 4 11 0 15z m-72-43c-50 45-144 49-204-17-4-5-4-12 0-15 2-2 5-3 8-3 2 0 5 1 7 3 52 57 132 54 175 16 5-4 11-4 15 0 4 5 4 12-1 16z m-93-52c-30 0-54-24-54-54 0-29 24-53 54-53 29 0 53 24 53 53 0 30-24 54-53 54z m0-86c-18 0-33 14-33 32 0 18 15 32 33 32 17 0 32-14 32-32 0-18-15-32-32-32z"/>
<glyph glyph-name="questions-circular-button" unicode="&#120;" d="M193 360c-2-2-3-3-4-4 2 2 4 4 4 4z m89-16c7-8 10-18 10-29 0-8-2-16-7-23-2-4-6-8-10-12l-13-14c-14-12-22-24-26-34-4-10-6-23-6-39l31 0c0 14 1 25 5 32 3 8 10 17 21 27 15 15 25 26 30 33 5 8 7 18 7 30 0 19-7 36-20 49-14 12-31 19-54 19-24 0-43-8-57-23-14-15-21-34-21-59l31 0c0 15 2 26 7 34 7 14 20 21 39 21 15 0 26-4 33-12z m230-88c0 141-115 256-256 256-141 0-256-115-256-256 0-141 115-256 256-256 141 0 256 115 256 256z m-489 0c0 129 104 233 233 233 129 0 233-104 233-233 0-129-104-233-233-233-129 0-233 104-233 233z m207-91l34 0 0-36-34 0z"/>
<glyph glyph-name="download-arrow" unicode="&#121;" d="M431 167c7 7 7 19 0 26-7 7-19 7-26 0l-131-131 0 432c0 10-8 18-18 18-10 0-18-8-18-18l0-432-131 131c-7 7-19 7-26 0-7-7-7-19 0-26l162-162c7-7 19-7 26 0z"/>
<glyph glyph-name="up-arrow-1" unicode="&#122;" d="M431 345c7-7 7-19 0-26-7-7-19-7-26 0l-131 131 0-432c0-10-8-18-18-18-10 0-18 8-18 18l0 432-131-131c-7-7-19-7-26 0-7 7-7 19 0 26l162 162c7 7 19 7 26 0z"/>
<glyph glyph-name="descendant" unicode="&#65;" d="M496 374l-120 120c-8 8-21 8-29 0l-120-120c-8-8-8-21 0-29 8-8 21-8 28 0l86 86 0-353c0-11 9-20 21-20 11 0 20 9 20 20l0 353 86-86c8-8 20-8 28 0 8 8 8 21-28 21z m-209-209c-8 8-20 8-28 0l-86-86 0 353c0 11-9 20-20 20-12 0-21-9-21-20l0-353-86 86c-7 8-20 8-28 0-8-8-8-21 0-29l120-120c8-8 21-8 29 0l120 120c8 8 8 21 0 29z"/>
<glyph glyph-name="filter" unicode="&#66;" d="M511 483c-3 5-9 9-15 9l-480 0c-6 0-12-4-15-9-2-5-1-12 3-16l184-225 0-206c0-6 3-11 8-14 2-1 5-2 8-2 2 0 5 1 7 2l104 51c5 3 8 8 8 14l1 155 184 225c4 4 5 11 3 16z m-215-225c-2-3-3-6-3-10l-1-151-73-36 0 187c0 4-1 7-3 10l-168 203 416 0z"/>
<glyph glyph-name="hide" unicode="&#67;" d="M442 323c-19 18-39 33-61 45l83 83c3 3 3 9 0 12-4 4-9 4-12 0l-87-86c-34 15-71 23-110 23-70 0-137-27-186-77l-69-69 70-70c18-17 37-32 58-44l-79-79c-3-3-3-9 0-12 2-2 4-3 6-3 3 0 5 1 7 3l83 83c34-17 72-25 112-25 70 0 137 27 186 77l69 69z m-301-170c-21 11-41 26-58 43l-59 58 57 57c46 46 108 72 174 72 34 0 67-7 97-20z m290 43c-46-46-108-72-174-72-35 0-68 7-99 21l210 211c23-12 43-27 61-45l59-58z m-175 170c-62 0-113-50-113-112 0-22 7-43 18-60l155 155c-18 11-38 17-60 17z m-62-206c18-12 39-19 62-19 62 0 112 51 112 113 0 23-7 44-18 61z"/>
<glyph glyph-name="notification" unicode="&#68;" d="M468 80l-37 61c-17 28-26 61-26 94l0 53c0 68-45 125-106 143l0 38c0 24-19 43-43 43-24 0-43-19-43-43l0-38c-61-18-106-75-106-143l0-53c0-33-9-66-26-94l-37-61c-2-3-2-7 0-11 2-3 5-5 9-5l406 0c4 0 7 2 9 5 2 4 2 8 0 11z m-279-37c12-25 37-43 67-43 30 0 55 18 67 43z"/>
<glyph glyph-name="four-squares" unicode="&#69;" d="M276 236l152 0 0-152-152 0z m-193 193l153 0 0-153-153 0z m193 0l152 0 0-153-152 0z m221 83l-483 0c-8 0-14-6-14-14l0-483c0-8 6-15 14-15l483 0c8 0 15 7 15 15l0 483c0 8-7 14-15 14z m-29-468l-424 0 0 424 424 0z m-385 192l153 0 0-152-153 0z"/>
<glyph glyph-name="wifi-connection" unicode="&#70;" d="M256 162c-26 0-47-20-47-46 0-26 21-47 47-47 26 0 47 21 47 47 0 26-21 46-47 46z m251 164c-63 74-154 117-251 117-97 0-188-43-251-117-8-10-7-25 3-33 5-4 10-5 15-5 7 0 14 2 18 8 54 64 132 100 215 100 83 0 161-36 215-100 4-6 11-8 18-8 5 0 10 1 15 5 10 8 11 23 3 33z m-251 24c-69 0-134-31-179-84-8-10-7-25 3-33 4-4 10-6 15-6 7 0 13 3 18 9 36 42 88 67 143 67 55 0 107-25 143-67 5-6 11-9 18-9 5 0 11 2 15 6 10 8 11 23 3 33-45 53-110 84-179 84z m0-94c-41 0-81-18-107-50-9-10-7-25 2-33 5-4 10-6 16-6 6 0 13 3 17 9 18 21 44 33 72 33 28 0 54-12 72-33 4-6 11-9 17-9 6 0 11 2 15 6 10 8 12 23 3 33-26 32-66 50-107 50z"/>
<glyph glyph-name="smartphone-call" unicode="&#71;" d="M370 512l-228 0c-19 0-35-16-35-35l0-442c0-19 16-35 35-35l228 0c19 0 35 16 35 35l0 442c0 19-16 35-35 35z m-151-25l74 0c2 0 4-2 4-4 0-2-2-4-4-4l-74 0c-2 0-4 2-4 4 0 2 2 4 4 4z m37-470c-10 0-17 8-17 18 0 9 7 17 17 17 10 0 17-8 17-17 0-10-7-18-17-18z m125 47l-250 0 0 393 250 0z"/>
<glyph glyph-name="preview" unicode="&#72;" d="M91 307l213 0 0-32-213 0z m377-307l22 23-76 76c14 18 22 40 22 64 0 43-26 81-63 98l0 135-116 116-235 0 0-474 351 0 0 27c7 3 13 7 19 11z m-201 457l52-52-52 0z m-213 23l181 0 0-106 106 0 0-104c-4 1-9 1-14 1-33 0-63-15-82-39l-154 0 0-32 135 0c-4-11-7-24-7-37 0-2 0-4 0-5l-128 0 0-32 135 0c8-24 25-43 46-56l-218 0z m273-393c-42 0-76 34-76 76 0 42 34 76 76 76 42 0 77-34 77-76 0-42-35-76-77-76z"/>
<glyph glyph-name="left-double-arrows" unicode="&#73;" d="M448 416l-64 0-160-160 160-160 64 0-160 160z m-160 0l-64 0-160-160 160-160 64 0-160 160z"/>
<glyph glyph-name="dashboard" unicode="&#101;" d="M284 512l228 0 0-171-228 0z m-284 0l228 0 0-284-228 0z m0-341l228 0 0-171-228 0z m284 113l228 0 0-284-228 0z"/>
<glyph glyph-name="cancel-round" unicode="&#74;" d="M437 437c-48 48-113 75-181 75-68 0-133-27-181-75-48-48-75-113-75-181 0-68 27-133 75-181 48-48 113-75 181-75 68 0 133 27 181 75 48 48 75 113 75 181 0 68-27 133-75 181z m-21-341c-42-43-99-67-160-67-61 0-118 24-160 67-89 88-89 232 0 320 42 43 99 67 160 67 61 0 118-24 160-67 89-88 89-232 0-320z m-47 273c-6 6-15 6-21 0l-92-92-92 92c-6 6-15 6-21 0-6-6-6-15 0-21l92-92-92-92c-6-6-6-15 0-21 3-3 7-4 10-4 4 0 8 1 11 4l92 92 92-92c3-3 7-4 10-4 4 0 8 1 11 4 5 6 5 15 0 21l-92 92 92 92c6 6 6 15 0 21z"/>
<glyph glyph-name="exclamation" unicode="&#75;" d="M256 512c-142 0-256-115-256-256 0-142 115-256 256-256 142 0 256 115 256 256 0 142-115 256-256 256z m0-472c-119 0-216 97-216 216 0 119 97 216 216 216 119 0 216-97 216-216 0-119-97-216-216-216z m0 343c-11 0-20-9-20-20l0-129c0-11 9-20 20-20 11 0 20 9 20 20l0 129c0 11-9 20-20 20z m27-220c0-15-12-27-27-27-15 0-27 12-27 27 0 15 12 27 27 27 15 0 27-12 27-27z"/>
<glyph glyph-name="round-done-button" unicode="&#76;" d="M256 512c-141 0-256-115-256-256 0-141 115-256 256-256 141 0 256 115 256 256 0 141-115 256-256 256z m0-478c-123 0-222 99-222 222 0 123 99 222 222 222 123 0 222-99 222-222 0-123-99-222-222-222z m93 306l-132-132-54 53c-6 7-17 7-23 0-7-6-7-17 0-24l65-65c3-3 7-5 12-5 4 0 8 2 12 5 0 0 0 0 0 0l143 144c7 7 7 17 0 24-6 6-17 6-23 0z"/>
<glyph glyph-name="spinner-of-dots" unicode="&#77;" d="M123 149c-13 0-24-5-33-14-9-9-13-20-13-32 0-13 4-24 13-33 9-9 20-14 33-14 12 0 23 5 32 14 9 9 14 20 14 33 0 12-5 23-14 32-9 9-20 14-32 14z m-10 97c0 14-5 26-15 36-10 10-23 15-37 15-14 0-26-5-36-15-10-10-15-22-15-36 0-14 5-26 15-36 10-10 22-15 36-15 14 0 27 5 37 15 10 10 15 22 15 36z m296 118c7 0 14 2 19 7 5 5 7 11 7 18 0 7-2 13-7 18-5 5-12 8-19 8-7 0-13-3-18-8-5-5-7-11-7-18 0-7 2-13 7-18 5-5 11-7 18-7z m-286 81c-16 0-29-5-40-16-11-11-16-24-16-40 0-15 5-29 16-40 11-11 24-16 40-16 15 0 29 5 40 16 11 11 16 25 16 40 0 16-5 29-16 40-11 11-25 16-40 16z m370-177c-6 6-14 9-22 9-9 0-16-3-22-9-6-6-9-14-9-22 0-9 3-16 9-22 6-6 13-9 22-9 8 0 16 3 22 9 6 6 9 13 9 22 0 8-3 16-9 22z m-84-130c-9 0-18-3-25-10-7-7-10-16-10-25 0-10 3-19 10-26 7-7 16-10 25-10 10 0 19 3 26 10 7 7 10 16 10 26 0 9-3 18-10 25-7 7-16 10-26 10z m-143-56c-11 0-21-4-29-12-8-8-12-18-12-29 0-11 4-21 12-29 8-8 18-12 29-12 11 0 21 4 29 12 8 8 12 18 12 29 0 11-4 21-12 29-8 8-18 12-29 12z m0 430c-17 0-31-6-43-18-12-12-18-26-18-43 0-17 6-32 18-44 12-12 26-18 43-18 17 0 32 6 44 18 12 12 18 27 18 44 0 17-6 31-18 43-12 12-27 18-44 18z"/>
<glyph glyph-name="bar-chart" unicode="&#78;" d="M488 20l-22 0 0 318c0 15-12 27-26 27l-49 0c-15 0-27-12-27-27l0-318-56 0 0 174c0 15-12 27-27 27l-49 0c-15 0-27-12-27-27l0-174-55 0 0 90c0 15-13 27-27 27l-49 0c-15 0-27-12-27-27l0-90-23 0c-6 0-10-4-10-10 0-6 4-10 10-10l464 0c6 0 10 4 10 10 0 6-4 10-10 10z m-358 0l-63 0 0 90c0 4 3 7 7 7l49 0c3 0 7-3 7-7z m158 0l-63 0 0 174c0 4 3 7 7 7l49 0c4 0 7-3 7-7z m158 0l-62 0 0 318c0 4 3 7 7 7l49 0c3 0 6-3 6-7z m20 481c1 3 0 6-2 8-3 2-5 3-8 3 0 0 0 0-1 0l-60 0c-6 0-10-4-10-10 0-6 4-10 10-10l37 0-99-99-37 37c-2 2-4 3-7 3-3 0-5-1-7-3l-180-179c-4-4-4-11 0-14 2-2 5-3 7-3 3 0 5 1 7 3l173 172 37-37c4-4 11-4 15 0l105 106 0-34c0-5 5-10 10-10 6 0 10 5 10 10l0 57c0 0 0 0 0 0z m-380-292c0-6-5-10-10-10-6 0-10 4-10 10 0 5 4 10 10 10 5 0 10-5 10-10z"/>
<glyph glyph-name="view" unicode="&#80;" d="M442 326c-50 49-116 77-187 77-70 0-137-28-186-77l-69-69 70-71c50-49 116-77 187-77 70 0 137 28 186 77l69 69z m-11-127c-46-47-108-72-174-72-66 0-128 25-174 72l-59 58 57 56c46 47 108 72 174 72 66 0 128-25 174-72l59-58z m-175 170c-62 0-113-51-113-113 0-62 51-112 113-112 62 0 112 50 112 112 0 62-50 113-112 113z m0-69c-24 0-43-20-43-44 0-5-4-8-9-8-5 0-9 3-9 8 0 34 27 61 61 61 5 0 8-4 8-9 0-5-3-8-8-8z"/>
<glyph glyph-name="checked" unicode="&#81;" d="M256 512c-141 0-256-115-256-256 0-141 115-256 256-256 141 0 256 115 256 256 0 141-115 256-256 256z m-47-388l-113 113 38 38 75-75 169 169 38-38z"/>
<glyph glyph-name="router1" unicode="&#79;" d="M487 168l-190 0 0 33-33 0 0 198-16 0 0-198-33 0 0-33-190 0c-14 0-25-12-25-25l0-99c0-14 11-25 25-25l8 0 0-17 17 0 0 17 412 0 0-17 17 0 0 17 8 0c14 0 25 11 25 25l0 99c0 13-11 25-25 25z m-256 16l50 0 0-16-50 0z m264-140l0 0c0-5-3-9-8-9l-462 0c-5 0-8 4-8 9l0 99c0 4 3 8 8 8l462 0c5 0 8-4 8-8z m-421 90c-23 0-41-18-41-41 0-23 18-41 41-41 23 0 42 18 42 41 0 23-19 41-42 41z m0-66c-13 0-25 12-25 25 0 14 12 25 25 25 14 0 25-11 25-25 0-13-11-25-25-25z m66 34l232 0 0-17-232 0z m322 0l17 0 0-17-17 0z m-33 0l17 0 0-17-17 0z m-33 0l17 0 0-17-17 0z m-207 364l-12 11c-21-21-32-49-32-78 0-30 11-58 32-79l12 12c-18 18-28 41-28 67 0 25 10 49 28 67z m-32 32l-12 12c-30-30-46-69-46-111 0-42 16-81 46-111l12 12c-27 26-41 61-41 99 0 37 14 72 41 99z m210 12l-12-12c27-27 41-62 41-99 0-38-14-73-41-99l12-12c29 29 46 69 46 111 0 42-16 81-46 111z m-32-33l-12-11c18-18 28-42 28-67 0-26-10-49-28-67l12-12c21 21 32 49 32 79 0 30-11 57-32 78z m-33-32l-11-12c9-9 14-21 14-34 0-13-5-26-14-35l11-12c13 13 19 29 19 47 0 17-7 34-19 46z m-81-12l-11 12c-13-12-19-29-19-46 0-18 6-34 19-47l11 12c-9 9-14 22-14 35 0 13 5 25 14 34z"/>
<glyph glyph-name="hfcl" unicode="&#82;" d="M470 333l-35 27c-3 3-9 5-13 5l-331 0c-5 0-10-2-14-5l-35-27c-16-2-29-16-29-32l0-48c0-16 13-30 29-32l31-24 11-6 344 0 11 6 31 24c16 2 29 16 29 32l0 48c0 16-13 30-29 32z m-383 15c1 0 2 1 4 1l331 0c1 0 2-1 3-1l19-15-376 0z m338-141c-1-1-2-1-4-1l-330 0c-1 0-3 0-4 1l-19 14 375 0z m58 46c0-9-7-16-17-16l-420 0c-10 0-17 7-17 16l0 48c0 9 7 16 17 16l421 0c9 0 16-7 16-16z m-397 48l-25 0c-4 0-8-4-8-8 0-5 4-9 8-9l25 0c5 0 8 4 8 9 0 4-4 8-8 8z m0-32l-25 0c-4 0-8-4-8-8 0-5 4-8 8-8l25 0c5 0 8 3 8 8 0 4-4 8-8 8z m56 32l-24 0c-5 0-8-4-8-8 0-5 3-9 8-9l24 0c5 0 9 4 9 9 0 4-4 8-9 8z m0-32l-24 0c-5 0-8-4-8-8 0-5 3-8 8-8l24 0c5 0 9 3 9 8 0 4-4 8-9 8z m300 40c-18 0-32-14-32-32 0-17 14-31 32-31 18 0 33 14 33 31 0 18-15 32-33 32z m0-48c-8 0-16 7-16 16 0 8 7 16 16 16 9 0 17-8 17-16 0-9-7-16-17-16z m-243 40l-24 0c-5 0-9-4-9-8 0-5 4-9 9-9l24 0c5 0 8 4 8 9 0 4-3 8-8 8z m0-32l-24 0c-5 0-9-4-9-8 0-5 4-8 9-8l24 0c5 0 8 3 8 8 0 4-3 8-8 8z m65 24c5 0 8 4 8 8 0 5-3 9-8 9-4 0-8-4-8-9 0-4 4-8 8-8z m0-32c-4 0-8-4-8-8 0-5 4-9 8-9 5 0 8 4 8 9 0 4-3 8-8 8z m17 24c-5 0-9-4-9-8 0-5 4-8 9-8 4 0 8 3 8 8-1 4-4 8-8 8z m15 8c5 0 9 4 9 8 0 5-4 9-9 9-4 0-8-4-8-9 0-4 4-8 8-8z m0-32c-4 0-8-4-8-8 0-5 4-9 8-9 5 0 9 4 9 9 0 4-4 8-9 8z m17 24c-5 0-8-4-8-8 0-5 3-8 8-8 4 0 8 3 8 8 0 4-4 8-8 8z m16 24c-4 0-8-4-8-8 0-5 4-8 8-8 5 0 8 3 8 8 0 4-4 8-8 8z m0-48c-4 0-8-4-8-8 0-5 4-9 8-9 5 0 8 4 8 9 0 4-4 8-8 8z"/>
<glyph glyph-name="hfcl-1" unicode="&#83;" d="M103 251l-14 0c-2 0-5-3-5-8 0-5 3-8 5-8l14 0c3 0 5 3 5 8 0 5-2 8-5 8z m34 32l-14 0c-3 0-5-4-5-8 0-5 2-9 5-9l14 0c3 0 5 4 5 9 0 4-2 8-5 8z m0-32l-14 0c-3 0-5-3-5-8 0-5 2-8 5-8l14 0c3 0 5 3 5 8 0 5-2 8-5 8z m-67 0l-15 0c-2 0-4-3-4-8 0-5 2-8 4-8l15 0c2 0 4 3 4 8 1 5-2 8-4 8z m0 32l-15 0c-2 0-4-4-4-8 0-5 2-9 4-9l15 0c2 0 4 4 4 9 1 4-2 8-4 8z m33 0l-14 0c-2 0-5-4-5-8 0-5 3-9 5-9l14 0c3 0 5 4 5 9 0 4-2 8-5 8z m341 8c-18 0-32-14-32-32 0-18 14-32 32-32 18 0 33 14 33 32 0 18-15 32-33 32z m0-49c-9 0-16 8-16 17 0 9 7 16 16 16 10 0 17-7 17-16 0-9-7-17-17-17z m28 73l-35 28c-4 3-9 5-14 5l-334 0c-6 0-10-2-14-5l-36-28c-16-1-29-15-29-32l0-48c0-17 13-31 30-33l433 0c16 2 29 16 29 33l0 48c0 17-13 31-30 32z m-386 15c1 1 2 2 3 2l334 0c1 0 3-1 4-2l19-14-379 0z m399-95c0-9-7-17-16-17l-426 0c-9 0-16 8-16 17l0 48c0 9 7 16 16 16l425 0c10 0 17-7 17-16z m-313 16l-14 0c-3 0-5-3-5-8 0-5 2-8 5-8l14 0c3 0 5 3 5 8 0 5-2 8-5 8z m0 32l-14 0c-3 0-5-4-5-8 0-5 2-9 5-9l14 0c3 0 5 4 5 9 0 4-2 8-5 8z m67 0l-14 0c-3 0-5-4-5-8 0-5 2-9 5-9l14 0c3 0 5 4 5 9 0 4-2 8-5 8z m0-32l-14 0c-3 0-5-3-5-8 0-5 2-8 5-8l14 0c3 0 5 3 5 8 0 5-2 8-5 8z m-34 0l-14 0c-3 0-5-3-5-8 0-5 2-8 5-8l14 0c3 0 5 3 5 8 0 5-2 8-5 8z m0 32l-14 0c-3 0-5-4-5-8 0-5 2-9 5-9l14 0c3 0 5 4 5 9 0 4-2 8-5 8z m136-32l-14 0c-3 0-5-3-5-8 0-5 2-8 5-8l14 0c3 0 5 3 5 8 0 5-2 8-5 8z m0 32l-14 0c-3 0-5-4-5-8 0-5 2-9 5-9l14 0c3 0 5 4 5 9 0 4-2 8-5 8z m-67-32l-14 0c-3 0-5-3-5-8 0-5 2-8 5-8l14 0c2 0 5 3 5 8 0 5-3 8-5 8z m0 32l-14 0c-3 0-5-4-5-8 0-5 2-9 5-9l14 0c2 0 5 4 5 9 0 4-3 8-5 8z m34 0l-15 0c-2 0-4-4-4-8 0-5 2-9 4-9l15 0c2 0 4 4 4 9 0 4-2 8-4 8z m0-32l-15 0c-2 0-4-3-4-8 0-5 2-8 4-8l15 0c2 0 4 3 4 8 0 5-2 8-4 8z"/>
<glyph glyph-name="hfcl-2" unicode="&#84;" d="M464 216l-357 0 0 162c15 4 26 17 26 33 0 20-16 35-35 35-19 0-35-16-35-35 0-16 12-29 27-33l0-162-42 0c-21 0-39-17-39-38l0-72c0-21 18-38 39-38l417 0c21 0 38 17 38 38l0 72c0 21-17 38-39 38z m-383 195c0 10 8 18 17 18 10 0 18-8 18-18 0-9-8-17-18-17-9 0-17 8-17 17z m404-305c0-11-9-21-20-21l-417 0c-12 0-21 9-21 21l0 72c0 11 9 21 21 21l417 0c11 0 20-9 20-21z m-28 45l-100 0c-5 0-8-4-8-9 0-5 4-9 8-9l100 0c5 0 8 4 8 9 0 5-3 9-8 9z m-358 2c-6 0-11-5-11-11 0-6 5-11 11-11 6 0 12 5 12 11 0 6-6 11-12 11z m118 189c1-1 3-2 5-2 2 0 5 2 7 4 14 20 21 43 21 67 0 25-7 48-21 68-3 4-8 5-12 2-5-3-6-8-2-12 11-17 17-37 17-58 0-21-6-40-17-57-3-4-3-10 2-12z m-50 38c1-1 3-2 5-2 3 0 6 2 7 4 6 8 9 19 9 29 0 11-3 21-9 30-3 4-8 5-12 2-4-3-5-8-2-12 4-6 6-12 6-20 0-7-2-13-6-19-3-4-2-10 2-12z"/>
<glyph glyph-name="hfcl-3" unicode="&#85;" d="M328 42l-148 0c-38 0-42 37-42 37l0 414c0 22 19 41 41 41l149 0c22 0 41-19 41-41l0-410c0-22-19-41-41-41z m24 451c0 13-11 24-24 24l-148 0c-13 0-24-11-24-24l0-25 196 0z m0-41l-196 0 0-328 196 0z m0-344l-196 0 0-25c0-13 11-24 24-24l148 0c13 0 24 11 24 24z m-172 327l148 0c4 0 8-3 8-8l0-33c0-4-4-8-8-8l-148 0c-4 0-8 4-8 8l0 33c0 5 4 8 8 8z m8-32l131 0 0 16-131 0z m-8-33l148 0c4 0 8-4 8-8l0-33c0-5-4-8-8-8l-148 0c-4 0-8 3-8 8l0 33c0 4 4 8 8 8z m8-33l131 0 0 17-131 0z m-8-74l33 0c5 0 8-3 8-8l0-65c0-5-3-8-8-8l-33 0c-4 0-8 3-8 8l0 65c0 5 4 8 8 8z m8-65l17 0 0 49-17 0z m91 8c4 0 8-4 8-8 0-5-4-8-8-8-5 0-9 3-9 8 0 4 4 8 9 8z m40 0c5 0 9-4 9-8 0-5-4-8-9-8-4 0-8 3-8 8 0 4 4 8 8 8z"/>
</font>
</defs>
</svg>
